<?xml version="1.0" standalone="no"?>
<!DOCTYPE svg PUBLIC "-//W3C//DTD SVG 20010904//EN"
 "http://www.w3.org/TR/2001/REC-SVG-20010904/DTD/svg10.dtd">
<svg version="1.0" xmlns="http://www.w3.org/2000/svg"
 width="300.000000pt" height="237.000000pt" viewBox="0 0 300.000000 237.000000"
 preserveAspectRatio="xMidYMid meet">
<metadata>
Created by potrace 1.10, written by Peter Selinger 2001-2011
</metadata>
<g transform="translate(0.000000,237.000000) scale(0.100000,-0.100000)"
fill="#1f2937" stroke="none">
<path d="M2285 2285 c-93 -29 -338 -103 -544 -166 -260 -79 -383 -120 -402
-137 -44 -36 -45 -72 -6 -195 34 -107 35 -107 13 -112 -11 -3 -88 -19 -171
-36 -325 -66 -365 -82 -400 -155 -10 -21 -33 -101 -51 -178 -18 -78 -47 -198
-64 -267 -34 -145 -55 -197 -116 -292 -40 -62 -46 -67 -65 -56 -19 10 -31 2
-115 -82 -52 -52 -94 -100 -94 -109 0 -20 470 -490 490 -490 9 0 58 43 110 95
l94 95 -33 34 c-28 29 -32 38 -22 50 7 8 85 65 174 127 89 63 194 145 235 183
68 65 145 172 173 241 l12 30 7 -30 c15 -66 53 -105 101 -105 48 0 67 27 89
130 11 52 20 104 20 117 0 27 7 28 34 8 29 -22 89 -19 111 5 16 18 17 33 12
137 l-6 118 397 119 c218 65 416 127 439 136 41 18 73 60 73 96 0 24 -199 672
-213 695 -14 22 -67 49 -94 48 -10 -1 -94 -25 -188 -54z m224 -12 c15 -13 48
-107 121 -345 86 -283 98 -331 88 -352 -6 -14 -18 -28 -27 -30 -90 -27 -787
-239 -799 -244 -13 -4 -12 0 5 22 47 60 41 136 -15 195 -45 47 -100 65 -154
50 -27 -7 -63 -35 -127 -99 -50 -50 -92 -87 -94 -82 -2 4 -7 21 -11 37 -4 17
-39 133 -77 258 -64 208 -69 231 -56 251 11 16 66 37 243 90 126 38 373 113
549 167 176 54 323 98 326 99 4 0 16 -8 28 -17z m-1100 -726 c40 -139 48 -119
-65 -164 -6 -2 -14 7 -18 21 -7 27 -25 33 -43 15 -8 -8 -7 -23 4 -56 17 -50
14 -150 -7 -194 -10 -22 -21 -28 -57 -32 -51 -5 -69 -18 -59 -42 5 -13 16 -15
68 -9 l63 6 216 214 c204 203 217 214 253 214 22 0 50 -8 66 -20 33 -23 55
-79 45 -112 -4 -13 -78 -95 -165 -183 -175 -178 -192 -200 -276 -365 -75 -147
-152 -227 -358 -369 -81 -57 -164 -117 -183 -134 l-35 -31 -163 169 -163 169
28 36 c16 20 47 70 69 112 42 77 62 145 141 481 56 237 54 235 233 276 162 38
347 78 367 80 11 0 22 -24 39 -82z m2 -268 l-61 -62 0 57 0 56 53 24 c49 22
52 22 61 5 7 -14 -4 -31 -53 -80z m418 -201 c1 -52 -1 -58 -19 -58 -34 0 -67
29 -85 72 l-16 41 53 54 53 54 7 -53 c3 -29 6 -79 7 -110z m-147 -10 c3 -24
-46 -275 -55 -285 -10 -9 -42 7 -56 29 -7 11 -16 47 -18 79 -6 63 5 86 80 167
36 38 45 40 49 10z m-997 -655 l210 -213 -68 -68 -68 -67 -216 219 -215 219
64 63 c34 34 68 62 73 61 6 0 104 -96 220 -214z"/>
<path d="M2286 2085 c-3 -8 2 -21 10 -27 120 -97 158 -161 159 -268 0 -44 -6
-80 -19 -107 -20 -45 -16 -73 9 -73 22 0 54 76 61 147 12 113 -45 241 -136
308 -52 38 -75 43 -84 20z"/>
<path d="M2243 2004 c-4 -11 9 -29 41 -56 54 -47 64 -62 75 -124 7 -34 5 -61
-7 -101 -10 -35 -12 -57 -5 -64 30 -30 68 47 68 137 -1 70 -43 154 -97 193
-47 35 -66 38 -75 15z"/>
<path d="M2207 1933 c-14 -13 -6 -32 28 -66 28 -28 35 -43 35 -73 0 -22 -4
-45 -9 -53 -13 -20 -2 -41 20 -41 25 0 39 30 39 85 0 57 -23 109 -60 135 -30
21 -42 24 -53 13z"/>
<path d="M1643 1394 c-8 -22 80 -107 105 -102 25 5 28 45 3 53 -11 3 -31 19
-45 36 -27 32 -53 38 -63 13z"/>
</g>
</svg>
